PathFileType	4	(X/Y/Z)	./resultDataOpenSim/trcMotMarkerGrf/sub10/qtm-12-04.trc
DataRate	CameraRate	NumFrames	NumMarkers	Units	OrigDataRate	OrigDataStartFrame	OrigNumFrames
250.000000	250.000000	14	24	m	250.000000	180	478
Frame#	Time	L.Toe.Tip			R.Toe.Tip			L.Ankle.Lat			R.Ankle.Lat			L.Ankle.Med			R.Ankle.Med			L.Heel			R.Heel			L.Knee.Lat			R.Knee.Lat			L.Knee.Med			R.Knee.Med			L.Thigh.Upper			R.Thigh.Upper			L.ASIS			R.ASIS			V.Sacral			L.Acromium			R.Acromium			C7			L.Elbow			R.Elbow			L.Wrist.Lat			R.Wrist.Lat
		X1	Y1	Z1	X2	Y2	Z2	X3	Y3	Z3	X4	Y4	Z4	X5	Y5	Z5	X6	Y6	Z6	X7	Y7	Z7	X8	Y8	Z8	X9	Y9	Z9	X10	Y10	Z10	X11	Y11	Z11	X12	Y12	Z12	X13	Y13	Z13	X14	Y14	Z14	X15	Y15	Z15	X16	Y16	Z16	X17	Y17	Z17	X18	Y18	Z18	X19	Y19	Z19	X20	Y20	Z20	X21	Y21	Z21	X22	Y22	Z22	X23	Y23	Z23	X24	Y24	Z24

180	0.716	-0.010738261	0.016918031	-0.14730563	-0.69235457	0.064691013	-0.028624279	-0.14535297	0.04202759	-0.17513536	-0.70331884	0.20691775	0.013536441	-0.1383749	0.064060518	-0.090175572	-0.66172893	0.18821878	-0.061682368	-0.2125238	0.012102309	-0.1334061	-0.73365605	0.24345546	-0.040137368	-0.096199475	0.42031838	-0.20683526	-0.36883521	0.39538961	0.053073629	-0.087894664	0.40929121	-0.086824488	-0.31563668	0.36253456	-0.064185203	-0.21564764	0.79411654	-0.27789593	-0.32787523	0.78670042	0.091134496	-0.1940692	0.90210228	-0.19351335	-0.23275561	0.88665707	0.030563367	-0.40838043	0.90546752	-0.11695982	-0.30573811	1.3589312	-0.25218868	-0.32602566	1.3531438	0.0744226	-0.40075326	1.3794973	-0.098717656	-0.43853147	1.0436502	-0.28839285	-0.32130476	0.98857816	0.099235506	-0.37023341	0.81628757	-0.34052314	-0.085270136	0.90819352	0.089684775
181	0.72	-0.010519705	0.016777349	-0.14714886	-0.68148956	0.068868071	-0.026046746	-0.14506423	0.041948334	-0.17484986	-0.69141484	0.21145394	0.014439198	-0.13810703	0.063734625	-0.089769248	-0.65015895	0.19193855	-0.060736135	-0.2124361	0.012192355	-0.13319345	-0.72143869	0.24771981	-0.03967909	-0.093582375	0.41941785	-0.20623911	-0.3556235	0.39419976	0.05466651	-0.085442262	0.40831691	-0.085929706	-0.30115871	0.36129431	-0.063015578	-0.21061221	0.79408032	-0.27850776	-0.32066195	0.78575303	0.090750164	-0.18858996	0.90224807	-0.19445565	-0.22740584	0.88650429	0.030548128	-0.40166986	0.9048192	-0.11709121	-0.29833089	1.358866	-0.25225787	-0.319641	1.3528518	0.074278206	-0.39407571	1.3795755	-0.098917	-0.43069869	1.0432437	-0.28907232	-0.31693725	0.98856459	0.099028501	-0.36132765	0.8162567	-0.34153707	-0.081946266	0.90533148	0.091491582
182	0.724	-0.010328401	0.016655729	-0.14701907	-0.66947746	0.072978054	-0.023227644	-0.14479702	0.041864594	-0.17460957	-0.67929472	0.21610267	0.015181337	-0.1378668	0.063449274	-0.08942682	-0.63839561	0.19587479	-0.059905067	-0.21236335	0.012279371	-0.13301777	-0.70933526	0.2517311	-0.039206949	-0.090918987	0.41865478	-0.20559095	-0.3424152	0.39316075	0.056265503	-0.083003717	0.40737776	-0.08501793	-0.28687916	0.36062732	-0.062028845	-0.20565679	0.79407103	-0.27907269	-0.31348474	0.78483638	0.090437104	-0.1831486	0.90232211	-0.19540992	-0.22195062	0.88637373	0.030458893	-0.39482188	0.90388665	-0.11737727	-0.29087897	1.3588146	-0.25228311	-0.31331779	1.3525648	0.074219161	-0.38738389	1.3797001	-0.099050584	-0.42283146	1.0428302	-0.28980584	-0.3125146	0.98853307	0.098856595	-0.35224178	0.8162644	-0.34264661	-0.078665222	0.90239719	0.093421797
183	0.728	-0.010159724	0.016550115	-0.14691419	-0.65643412	0.076951437	-0.020241987	-0.14454741	0.041774264	-0.17442017	-0.66682178	0.220861	0.01578263	-0.13766313	0.063220223	-0.08914597	-0.62635097	0.19998245	-0.059188115	-0.21231095	0.012360809	-0.13288497	-0.697209	0.25545164	-0.03879703	-0.087844833	0.41794145	-0.20498219	-0.3291877	0.39232501	0.057808525	-0.08064324	0.40644088	-0.084200048	-0.27283929	0.36044147	-0.061214853	-0.2007482	0.79407902	-0.27958677	-0.3063485	0.7839581	0.090185534	-0.17776073	0.90232713	-0.19637198	-0.21633792	0.88637064	0.030222274	-0.38849766	0.90295942	-0.11729844	-0.2834143	1.3587852	-0.25226882	-0.30703334	1.3522808	0.074231161	-0.38065058	1.3798773	-0.099257762	-0.41489366	1.0424313	-0.2906433	-0.30815369	0.98846444	0.098850662	-0.3429699	0.81631728	-0.34384721	-0.075442213	0.89941058	0.095463163
184	0.732	-0.010013746	0.01645761	-0.14683197	-0.64258578	0.080747278	-0.017178184	-0.14431987	0.041677151	-0.17427859	-0.6539356	0.2255736	0.016280676	-0.13749807	0.063040887	-0.088921287	-0.61390914	0.20408428	-0.058560904	-0.21227877	0.012432571	-0.13279146	-0.68490062	0.25888042	-0.038467922	-0.084119797	0.41720861	-0.20443037	-0.31587748	0.39173161	0.059160512	-0.078507852	0.40544959	-0.08361355	-0.25902437	0.36064844	-0.06054417	-0.19585927	0.79409339	-0.2800474	-0.29926579	0.78312798	0.089985428	-0.17244079	0.90227482	-0.19733762	-0.21064222	0.88650318	0.029903074	-0.38310983	0.90226888	-0.11652299	-0.27595885	1.3587846	-0.25221976	-0.30075983	1.3520083	0.07429832	-0.37388785	1.3801119	-0.099646582	-0.4068875	1.0420581	-0.29153586	-0.3039407	0.98836073	0.099096752	-0.3335247	0.81642492	-0.34513228	-0.072309353	0.89638978	0.097606389
185	0.736	-0.0098931596	0.016378256	-0.14677015	-0.6281781	0.084334282	-0.014110614	-0.14412503	0.041578988	-0.17417648	-0.64065516	0.22996756	0.016737589	-0.13735952	0.062892536	-0.088744795	-0.60098851	0.2079178	-0.057980609	-0.21226165	0.012494173	-0.13272501	-0.67225602	0.26206026	-0.038174351	-0.079794833	0.41649289	-0.20397869	-0.30244542	0.39140805	0.060255797	-0.076631504	0.40439332	-0.083299867	-0.24535201	0.36119255	-0.05996497	-0.1909867	0.79410345	-0.28044301	-0.29224463	0.7823657	0.089835928	-0.16719074	0.90218259	-0.19828642	-0.20499349	0.88673093	0.029613097	-0.37839746	0.90179791	-0.11529499	-0.26851706	1.3588193	-0.2521329	-0.29449495	1.3517701	0.074411458	-0.36714391	1.3804096	-0.10011664	-0.39881954	1.0417053	-0.29243555	-0.2998272	0.98826093	0.09953341	-0.32392316	0.81660483	-0.34649711	-0.069299474	0.89335382	0.099844769
186	0.74	-0.0097999254	0.01631415	-0.14672582	-0.61337477	0.087686645	-0.011066902	-0.14396715	0.04148791	-0.17410476	-0.62709635	0.23379001	0.017194293	-0.13723519	0.062761968	-0.088607378	-0.58759269	0.21128488	-0.057421869	-0.21225315	0.012550728	-0.13267194	-0.6592107	0.26501535	-0.037873677	-0.075343228	0.41589379	-0.20367425	-0.28891296	0.3913841	0.061172227	-0.074821486	0.40334444	-0.083148557	-0.23173949	0.36203734	-0.059423514	-0.18614763	0.7940975	-0.28075338	-0.28528089	0.78169456	0.089746362	-0.16200927	0.90206597	-0.19919723	-0.19950881	0.88700554	0.029444022	-0.3737044	0.90135773	-0.11424225	-0.26108948	1.3588951	-0.25200078	-0.28826053	1.3515848	0.074569508	-0.36043929	1.3807755	-0.10049813	-0.39068154	1.0413601	-0.29336053	-0.29564285	0.98821756	0.099978099	-0.31417536	0.81687303	-0.34793569	-0.066423778	0.89031866	0.10217299
187	0.744	-0.0097320681	0.016265197	-0.14669479	-0.59823683	0.090791902	-0.008019939	-0.14384084	0.041407613	-0.17405568	-0.61346207	0.23694109	0.017612999	-0.13712391	0.062646178	-0.088497837	-0.57380473	0.21415223	-0.056892034	-0.21224929	0.012608774	-0.1326227	-0.64585082	0.2677039	-0.037580113	-0.071323204	0.41545344	-0.2034939	-0.27531129	0.39169058	0.062035528	-0.072815044	0.40239757	-0.083001308	-0.21816153	0.36314564	-0.058898183	-0.18135766	0.79406436	-0.28096101	-0.27836688	0.78112667	0.089725214	-0.15689498	0.90193334	-0.2000641	-0.19422288	0.88729121	0.029433649	-0.36862985	0.9007844	-0.11382536	-0.25368961	1.359014	-0.25182506	-0.28207289	1.3514561	0.074775537	-0.35375364	1.3812071	-0.10075014	-0.38246632	1.0410113	-0.29432229	-0.2912208	0.98825593	0.10025987	-0.30430946	0.81722798	-0.34942196	-0.063679013	0.88729107	0.10458767
188	0.748	-0.0096834246	0.016226766	-0.1466729	-0.58277116	0.093660558	-0.0049159512	-0.14373596	0.041336405	-0.17402127	-0.59992128	0.23950227	0.01791353	-0.1370387	0.06254557	-0.088400652	-0.55975913	0.21660851	-0.056401841	-0.21224927	0.012671668	-0.13257285	-0.63233496	0.27004278	-0.037356847	-0.067905617	0.41512541	-0.20337729	-0.26162362	0.39233212	0.062901816	-0.070488148	0.4015927	-0.082778574	-0.20462464	0.3644838	-0.05839285	-0.17661201	0.79399622	-0.28105866	-0.27151846	0.78065827	0.089788333	-0.15183675	0.90178739	-0.20088919	-0.1890803	0.88757019	0.029570821	-0.36338892	0.90006676	-0.11401417	-0.24633744	1.359172	-0.25161819	-0.27592505	1.3513777	0.07502978	-0.34707248	1.3816943	-0.10092085	-0.37419434	1.0406543	-0.29517705	-0.28653192	0.9883644	0.10034685	-0.29438803	0.81764845	-0.35090173	-0.061069023	0.88426981	0.10708522
189	0.752	-0.0096478671	0.016192199	-0.14665771	-0.56698961	0.096328273	-0.0017277692	-0.14364156	0.041271754	-0.17399302	-0.58644255	0.24167597	0.018085823	-0.1369982	0.062459389	-0.088299963	-0.5455736	0.21875629	-0.055941521	-0.21225292	0.012738455	-0.13252026	-0.61874708	0.27196711	-0.037258957	-0.064872444	0.41484384	-0.20330112	-0.24780725	0.39327941	0.06375276	-0.067924703	0.40089836	-0.082515982	-0.19112527	0.36603575	-0.057909333	-0.17188852	0.79388848	-0.28105086	-0.26479608	0.78028153	0.090004337	-0.14681955	0.9016293	-0.20167079	-0.18400012	0.88783436	0.029825427	-0.35864748	0.89935085	-0.11436762	-0.23903382	1.3593636	-0.2513822	-0.26979837	1.3513432	0.075325251	-0.34040274	1.3822245	-0.10104841	-0.36593522	1.0403098	-0.29553756	-0.28172886	0.98852329	0.10037977	-0.28446833	0.81811195	-0.35232439	-0.05860623	0.88125547	0.10965786
190	0.756	-0.0096242531	0.016158148	-0.14664916	-0.55094129	0.098839794	0.0015083295	-0.14355105	0.041212868	-0.17396563	-0.57281706	0.24366922	0.018217215	-0.13699861	0.062387628	-0.08819002	-0.53127644	0.2206461	-0.055482021	-0.21225875	0.01280664	-0.13246357	-0.6050754	0.27345481	-0.037292102	-0.061967963	0.41457008	-0.20326472	-0.23386036	0.39450148	0.064564357	-0.06536118	0.40024187	-0.082325476	-0.17765513	0.36779968	-0.057446882	-0.1671641	0.79373667	-0.28095287	-0.25830478	0.779989	0.090497034	-0.14183738	0.90146316	-0.20240074	-0.17893639	0.88807342	0.030172905	-0.35500874	0.89882881	-0.11430531	-0.23175123	1.3595894	-0.25109428	-0.26367942	1.3513531	0.07564609	-0.33375528	1.3827875	-0.10114602	-0.35781978	1.0400605	-0.29491267	-0.27704565	0.98873332	0.10057003	-0.27455017	0.81861763	-0.35368374	-0.056301216	0.87825761	0.11229305
191	0.76	-0.0096159597	0.016127019	-0.146649	-0.5346889	0.10122004	0.0047073495	-0.14346771	0.041159966	-0.17393904	-0.55891505	0.24555369	0.018385445	-0.13700147	0.062331827	-0.088079568	-0.51682934	0.22227217	-0.054976919	-0.2122652	0.012876045	-0.13240367	-0.59130649	0.27452105	-0.037412466	-0.059135426	0.41428423	-0.20324292	-0.21983129	0.39598418	0.065337484	-0.063022452	0.3995643	-0.082306392	-0.16420392	0.36977241	-0.057003638	-0.16242397	0.79353469	-0.280785	-0.25213982	0.77976957	0.091322529	-0.13689198	0.90129934	-0.20306804	-0.17388914	0.88827421	0.030600581	-0.35246582	0.89860464	-0.11342227	-0.2244586	1.3598531	-0.25072785	-0.25756153	1.3514188	0.075972392	-0.32713383	1.3833746	-0.10121509	-0.35001036	1.0400361	-0.29320192	-0.27261789	0.98901514	0.10102893	-0.26458168	0.81918843	-0.35501659	-0.054160053	0.875292	0.11497816
192	0.764	-0.0096253135	0.016103455	-0.14665813	-0.51824076	0.10346543	0.0077897109	-0.14340125	0.041113328	-0.17391521	-0.54479418	0.24724723	0.018601329	-0.13696821	0.062290668	-0.087980232	-0.50219811	0.22360916	-0.054372123	-0.21227267	0.012948226	-0.13234309	-0.57746592	0.2752054	-0.037543889	-0.056510724	0.4139678	-0.20319685	-0.20576753	0.39771225	0.066077626	-0.060949244	0.39886992	-0.082459083	-0.15073862	0.3719395	-0.056559572	-0.15766416	0.79328127	-0.28056449	-0.24626575	0.77963315	0.092297592	-0.13198921	0.90115204	-0.20366464	-0.16887735	0.88842842	0.031102584	-0.35033787	0.8986637	-0.11175198	-0.21715169	1.3601553	-0.25028648	-0.25144105	1.3515574	0.076289042	-0.32053505	1.3839791	-0.10125324	-0.34258905	1.0402879	-0.2912207	-0.26841478	0.98939295	0.10171012	-0.25450816	0.81985269	-0.35636859	-0.052187614	0.87237216	0.11770487
193	0.768	-0.0096493498	0.01608902	-0.14667447	-0.50151704	0.10556661	0.010725293	-0.14335615	0.041072492	-0.17389401	-0.53046181	0.24867582	0.018902369	-0.13689276	0.062257728	-0.087893143	-0.48738585	0.22465727	-0.053651887	-0.21228324	0.013022539	-0.13228147	-0.56357664	0.27554545	-0.037603352	-0.054266134	0.41360742	-0.20311711	-0.19169531	0.39965687	0.066791687	-0.058990324	0.39822179	-0.082682728	-0.13721261	0.37428279	-0.056085708	-0.15290025	0.7930006	-0.2803078	-0.24047974	0.77965065	0.093017614	-0.12713531	0.90103115	-0.20418652	-0.16390692	0.88853597	0.031674729	-0.34780006	0.89892089	-0.10986269	-0.20985463	1.3604885	-0.24980618	-0.24532064	1.3517757	0.076587626	-0.3139529	1.3845993	-0.10126029	-0.33548161	1.0407089	-0.29031309	-0.26433263	0.98988309	0.10250775	-0.24430389	0.82062779	-0.35776853	-0.050389777	0.8695021	0.12047103
